<?xml version="1.0" standalone="no"?>
<!DOCTYPE svg PUBLIC "-//W3C//DTD SVG 20010904//EN"
 "http://www.w3.org/TR/2001/REC-SVG-20010904/DTD/svg10.dtd">
<svg version="1.0" xmlns="http://www.w3.org/2000/svg"
 width="1080.000000pt" height="1080.000000pt" viewBox="0 0 1080.000000 1080.000000"
 preserveAspectRatio="xMidYMid meet">

<g transform="translate(0.000000,1080.000000) scale(0.100000,-0.100000)"
fill="#000000" stroke="none">
<path d="M7329 10556 c-2 -2 -618 -7 -1369 -11 -751 -3 -1374 -8 -1386 -11
-12 -3 -34 -30 -55 -67 -19 -34 -42 -75 -52 -92 -44 -78 -85 -175 -95 -227 -6
-32 -20 -77 -32 -102 -11 -25 -20 -49 -20 -53 0 -5 -11 -28 -24 -53 -13 -25
-29 -70 -36 -100 -7 -30 -21 -66 -31 -79 -11 -13 -19 -30 -19 -37 0 -7 -14
-22 -30 -34 -16 -12 -30 -26 -30 -33 0 -6 -9 -20 -20 -32 -19 -20 -33 -53 -77
-169 -11 -30 -12 -68 -7 -170 l6 -131 -26 -24 c-36 -34 -36 -92 0 -126 46 -43
83 -48 278 -41 100 3 186 6 191 5 6 -1 404 -4 886 -6 774 -3 878 -2 889 12 36
44 207 -14 229 -77 8 -23 14 -254 18 -758 5 -632 8 -726 21 -736 10 -8 13 -17
7 -30 -4 -10 -10 -26 -13 -34 -3 -8 -7 -118 -8 -245 -1 -131 1 -204 5 -169 8
66 16 84 35 84 28 0 41 -53 41 -180 1 -220 23 -696 31 -687 2 2 6 80 9 173 6
188 10 221 27 241 20 24 48 -33 48 -98 0 -30 7 -105 16 -165 21 -146 33 -806
33 -1909 0 -591 -3 -853 -11 -862 -15 -18 -22 -17 -55 11 -15 12 -64 42 -107
65 -44 22 -87 48 -95 55 -9 8 -36 24 -61 36 -46 22 -81 42 -211 119 -160 96
-238 141 -243 141 -3 0 -26 14 -51 31 -25 17 -76 46 -113 66 -37 19 -74 40
-82 48 -8 7 -32 18 -53 25 -21 6 -41 18 -44 26 -3 8 -43 32 -88 55 -46 22 -89
47 -96 55 -6 8 -17 14 -23 14 -7 0 -23 11 -35 24 -13 13 -35 27 -49 31 -14 3
-39 17 -55 31 -16 13 -34 24 -41 24 -7 0 -28 10 -47 23 -19 12 -50 29 -69 37
-19 7 -43 20 -53 28 -9 8 -26 20 -36 26 -10 6 -52 33 -92 60 -65 43 -133 81
-271 152 -22 12 -45 28 -50 37 -5 10 -29 22 -53 28 -25 6 -45 16 -45 21 0 5
-17 16 -37 25 -21 8 -49 23 -63 33 -14 9 -43 23 -65 30 -22 7 -47 18 -55 25
-8 7 -35 16 -60 20 -28 5 -51 16 -62 30 -10 13 -33 27 -51 30 -17 4 -41 15
-52 25 -11 10 -36 21 -55 25 -19 4 -44 16 -55 27 -89 84 -144 131 -167 144
-38 20 -99 60 -127 85 -13 11 -37 23 -52 26 -16 3 -29 10 -29 15 0 5 -21 18
-47 29 -27 11 -51 26 -55 33 -4 7 -28 19 -52 26 -28 8 -48 20 -51 31 -4 11
-18 22 -33 26 -15 3 -43 19 -62 35 -19 15 -41 28 -50 28 -8 0 -21 9 -28 20 -7
11 -21 20 -31 20 -11 0 -33 11 -48 24 -16 14 -52 30 -79 37 -27 7 -66 20 -86
30 -21 11 -46 19 -57 19 -14 0 -25 11 -35 34 -19 46 -51 76 -80 76 -14 0 -30
10 -40 25 -9 14 -21 25 -26 25 -6 0 -27 11 -48 24 -20 13 -54 29 -74 36 -21 6
-38 16 -38 21 0 5 -5 9 -12 9 -6 0 -20 7 -30 16 -19 18 -17 20 -32 -30 -3 -8
-22 -20 -43 -26 -21 -6 -48 -23 -59 -38 -22 -28 -47 -99 -39 -112 4 -7 20
-918 17 -986 -2 -38 3 -45 48 -88 27 -25 54 -46 61 -46 7 0 49 -23 95 -50 46
-28 87 -50 93 -50 5 0 22 -11 38 -24 15 -13 39 -27 53 -31 14 -4 32 -13 40
-20 26 -21 124 -72 163 -85 21 -6 41 -18 44 -26 3 -8 25 -23 49 -33 24 -11 44
-24 44 -30 0 -6 19 -16 43 -22 23 -7 56 -22 72 -34 17 -12 40 -25 53 -29 12
-4 22 -12 22 -17 0 -5 24 -20 53 -34 28 -14 70 -36 92 -49 22 -14 60 -36 85
-51 94 -54 116 -68 133 -86 10 -10 26 -19 35 -19 10 0 40 -14 68 -31 27 -18
76 -45 109 -62 33 -16 69 -38 80 -47 11 -10 31 -21 45 -25 14 -4 52 -27 85
-49 33 -23 76 -48 95 -56 19 -7 48 -24 63 -37 16 -13 35 -23 42 -23 7 0 26
-10 42 -23 15 -13 43 -29 61 -36 17 -8 32 -17 32 -21 0 -5 17 -14 38 -20 20
-7 48 -23 62 -35 14 -13 36 -26 49 -30 12 -4 39 -18 58 -31 20 -13 42 -24 49
-24 7 0 20 -8 30 -18 9 -9 34 -26 55 -37 86 -45 286 -158 316 -178 59 -40 118
-74 153 -87 19 -7 42 -19 50 -25 26 -22 156 -85 173 -85 9 0 19 -5 22 -10 11
-18 166 -118 225 -145 19 -9 42 -23 51 -31 20 -18 62 -42 135 -77 28 -14 54
-29 58 -35 3 -6 23 -16 44 -23 20 -6 59 -28 86 -48 49 -36 124 -81 201 -121
22 -11 63 -33 90 -50 28 -16 66 -36 85 -45 19 -8 46 -22 60 -30 14 -8 48 -26
75 -40 72 -37 93 -50 118 -72 12 -12 33 -24 47 -28 14 -4 34 -16 45 -26 11
-10 36 -25 55 -34 19 -9 55 -29 80 -45 25 -16 68 -40 96 -54 28 -13 54 -29 58
-35 4 -6 30 -17 59 -26 54 -16 102 -45 177 -107 25 -20 62 -44 82 -52 20 -9
39 -20 43 -26 3 -5 37 -25 75 -43 37 -19 88 -46 112 -61 23 -15 89 -54 146
-87 95 -56 104 -59 129 -47 25 12 26 16 25 88 -1 41 -3 1184 -6 2540 l-4 2466
-21 34 c-18 31 -21 50 -21 166 0 125 1 132 24 153 l24 22 6 -25 c3 -14 11 -26
16 -26 6 0 10 -77 10 -203 0 -228 5 -251 54 -229 20 9 26 19 27 44 1 18 3 44
4 58 2 14 8 99 14 189 7 90 14 168 17 172 2 4 4 83 3 176 -1 215 0 224 12 239
6 8 8 29 4 51 -12 68 -17 341 -6 361 6 11 10 492 12 1309 l3 1291 -26 31 c-15
17 -29 40 -33 50 -3 11 -14 22 -23 25 -19 6 -698 17 -703 12z m573 -3238 c-9
-32 -10 -31 -10 22 -1 46 1 52 10 33 8 -16 8 -32 0 -55z m4 -57 c-3 -5 1 -23
10 -40 11 -21 14 -44 10 -66 -7 -36 -26 -42 -38 -13 -9 22 2 128 14 128 5 0 7
-4 4 -9z m-1219 -238 c-3 -10 -5 -4 -5 12 0 17 2 24 5 18 2 -7 2 -21 0 -30z
m1263 27 c0 -5 -2 -10 -4 -10 -3 0 -8 5 -11 10 -3 6 -1 10 4 10 6 0 11 -4 11
-10z"/>
<path d="M102 10479 c-12 -5 -27 -21 -33 -36 -14 -36 -3 -3006 12 -3011 32
-12 36 -34 43 -234 5 -149 11 -209 22 -225 9 -14 14 -49 14 -96 0 -150 13
-318 24 -314 7 2 11 34 12 78 1 41 6 92 12 114 6 22 14 77 18 123 4 45 11 85
15 88 5 3 9 -2 9 -10 0 -9 5 -16 11 -16 5 0 7 5 4 10 -3 6 0 10 8 10 22 0 24
-308 3 -348 -21 -41 -23 -468 -2 -497 12 -18 16 -199 25 -1160 23 -2267 34
-2933 50 -3050 3 -27 3 -70 0 -95 -10 -64 -10 -296 0 -350 6 -27 18 -52 33
-64 22 -18 44 -19 903 -12 484 3 1134 9 1445 12 l565 6 65 32 65 31 78 155
c43 85 85 173 93 195 8 21 21 46 28 55 8 8 30 53 51 100 20 47 50 110 66 141
16 31 29 63 29 71 0 8 9 23 19 32 11 10 23 32 26 50 4 17 17 49 30 71 12 22
26 51 30 65 4 14 16 44 28 67 39 82 146 75 -1205 72 -945 -3 -1200 -1 -1209 8
-10 10 -13 363 -12 1690 0 923 4 1921 8 2218 7 522 8 538 25 505 21 -43 37
-220 19 -220 -7 0 -8 -13 -3 -42 4 -24 8 -60 9 -81 1 -21 11 -47 22 -60 11
-12 25 -31 31 -42 9 -17 11 -16 16 15 3 19 8 238 11 485 6 502 11 606 30 650
7 17 15 38 19 48 6 20 44 22 71 3 28 -19 81 -25 145 -16 38 5 64 4 85 -5 17
-8 40 -16 53 -20 12 -3 34 -17 50 -29 15 -13 45 -29 67 -36 22 -7 50 -18 62
-26 12 -8 47 -23 78 -35 30 -11 61 -26 68 -33 31 -30 82 -59 120 -68 37 -8
169 -86 182 -108 4 -6 13 -5 23 1 11 7 29 8 52 2 27 -7 35 -14 35 -33 0 -16 9
-29 25 -36 37 -18 65 -21 63 -6 -2 6 4 12 14 12 15 0 15 -2 -1 -19 -25 -27
-14 -39 42 -46 76 -10 92 -15 92 -28 1 -21 83 -84 120 -92 19 -4 44 -18 55
-32 18 -21 24 -23 48 -14 40 15 43 14 56 -17 14 -33 67 -62 112 -62 17 0 43
-9 57 -21 15 -11 68 -43 117 -70 50 -28 97 -59 106 -69 8 -10 24 -19 35 -21
10 -2 23 -14 29 -26 10 -23 32 -33 77 -33 19 0 29 -7 34 -22 9 -30 22 -38 62
-38 30 0 33 2 30 28 -2 22 -9 28 -38 32 -30 4 -38 12 -61 60 l-26 55 24 3 c14
2 33 -4 43 -13 10 -9 36 -23 57 -30 29 -10 39 -19 41 -39 3 -24 7 -26 48 -26
24 0 44 -4 44 -10 0 -5 -4 -10 -10 -10 -5 0 -10 -8 -10 -18 0 -20 -24 -45 -52
-55 -10 -4 -18 -11 -18 -17 0 -10 14 -13 61 -12 19 0 30 -7 38 -24 6 -15 19
-24 32 -24 12 0 41 -10 63 -23 50 -28 124 -53 133 -44 3 4 0 19 -8 34 -7 16
-15 31 -17 36 -2 4 15 7 37 7 23 0 41 -4 41 -10 0 -5 18 -19 40 -30 22 -11 40
-27 40 -34 0 -8 19 -18 45 -25 51 -13 57 -26 20 -43 -14 -6 -25 -16 -25 -22 0
-18 62 -68 96 -78 18 -4 34 -17 37 -27 4 -18 62 -39 74 -28 11 12 -9 45 -32
51 -14 4 -25 13 -25 20 0 9 -20 19 -50 26 -37 9 -50 17 -50 30 0 10 6 20 12
23 23 7 79 -11 102 -32 12 -11 37 -24 55 -27 32 -7 115 -56 147 -88 8 -9 34
-21 57 -28 23 -6 46 -18 50 -25 4 -7 19 -13 32 -13 13 0 39 -13 57 -29 18 -16
47 -32 64 -35 17 -4 42 -18 54 -32 13 -13 32 -24 42 -24 10 0 26 -8 36 -17 25
-24 59 -43 75 -43 8 0 22 -9 31 -19 10 -11 31 -23 47 -26 17 -4 42 -18 56 -31
14 -13 43 -27 64 -30 25 -4 41 -13 44 -24 3 -10 18 -23 33 -30 15 -6 45 -20
67 -32 48 -25 105 -25 122 -1 7 9 13 31 13 47 0 17 7 44 15 60 14 27 14 31 0
38 -9 6 -15 23 -15 43 0 28 4 35 19 35 36 0 53 11 40 26 -6 8 -18 14 -25 14
-8 0 -16 11 -20 24 -9 38 3 577 14 588 9 9 32 -91 32 -141 0 -12 5 -32 11 -43
11 -20 11 -19 28 8 14 22 19 63 25 174 3 80 9 165 12 190 5 42 2 72 -26 240
-5 36 -10 80 -10 98 1 26 -5 34 -25 42 -15 6 -25 17 -25 29 0 11 -9 22 -19 26
-11 3 -26 17 -35 30 -24 36 -89 36 -113 -1 -15 -24 -17 -25 -24 -8 -3 11 -2
30 3 43 13 34 -2 44 -61 40 -48 -4 -50 -3 -46 19 5 28 -34 46 -83 38 -30 -4
-32 -3 -26 19 5 20 1 25 -20 31 -16 4 -28 15 -32 29 -4 17 -15 24 -44 29 -22
3 -48 15 -58 26 -12 13 -38 23 -71 27 -42 5 -52 10 -57 28 -7 28 -67 43 -90
24 -13 -10 -13 -8 -5 14 12 31 10 32 -47 42 -24 4 -48 15 -55 26 -18 25 -125
79 -159 79 -15 0 -29 4 -32 9 -3 4 -27 16 -53 26 -26 10 -62 29 -79 42 -17 12
-39 23 -50 23 -11 0 -44 26 -75 58 -44 47 -64 60 -96 65 -58 10 -133 45 -133
64 0 8 -19 33 -42 54 -34 31 -51 39 -80 39 -24 0 -46 8 -65 24 -15 13 -49 33
-75 44 -27 11 -48 26 -48 31 0 6 -8 11 -18 11 -11 0 -37 13 -59 29 -22 16 -49
31 -60 35 -11 4 -28 15 -38 26 -10 11 -23 20 -29 20 -10 0 -140 60 -176 82 -8
4 -34 17 -56 28 -23 11 -47 27 -54 35 -7 8 -19 15 -26 15 -7 0 -20 11 -29 23
-8 13 -33 29 -55 36 -22 6 -44 20 -49 30 -6 9 -29 23 -53 30 -24 7 -50 20 -58
27 -24 23 -104 74 -116 74 -6 0 -22 11 -35 24 -13 13 -43 29 -67 35 -24 7 -64
23 -89 36 -25 14 -52 25 -59 25 -8 0 -22 8 -32 18 -36 35 -116 92 -129 92 -7
0 -21 4 -31 9 -9 5 -52 25 -94 45 -43 20 -91 48 -107 61 -16 14 -44 28 -63 31
-74 14 -320 162 -335 201 -3 7 -14 13 -24 13 -28 0 -108 43 -149 79 -19 17
-46 34 -60 38 -31 8 -128 60 -155 83 -11 10 -31 21 -45 25 -23 7 -63 29 -146
83 -19 12 -39 22 -44 22 -17 0 -147 70 -161 86 -7 8 -29 24 -48 35 -20 11 -54
30 -76 44 -22 13 -83 45 -135 71 -52 26 -108 57 -125 69 -16 11 -50 29 -75 38
-25 10 -63 31 -85 47 -22 16 -58 39 -80 50 -38 19 -92 56 -125 84 -8 8 -33 19
-55 26 -45 14 -120 54 -150 81 -28 24 -114 65 -150 72 -16 2 -40 1 -53 -4z
m4744 -2756 c16 -6 16 -7 -2 -13 -26 -9 -61 0 -42 11 16 11 22 11 44 2z
m-2201 -224 c4 -6 5 -13 2 -16 -8 -8 -67 7 -67 18 0 13 57 11 65 -2z m2749
-95 c24 -9 19 -24 -8 -24 -26 0 -40 12 -29 24 8 8 17 8 37 0z m161 -55 c10
-30 -7 -42 -39 -28 -25 12 -25 13 -10 31 22 24 41 23 49 -3z m128 -61 c6 -19
-13 -68 -27 -68 -19 0 -37 59 -25 81 8 15 14 17 29 9 10 -5 20 -15 23 -22z
m117 -6 c0 -4 -10 -13 -21 -20 -18 -12 -21 -21 -17 -57 3 -24 2 -49 -3 -57 -6
-9 -9 -5 -9 13 0 15 -7 43 -16 64 -8 21 -13 44 -10 51 6 15 76 20 76 6z
m-2720 -12 c0 -5 -2 -10 -4 -10 -3 0 -8 5 -11 10 -3 6 -1 10 4 10 6 0 11 -4
11 -10z m110 -60 c0 -11 -2 -20 -3 -20 -2 0 -12 9 -22 20 -18 19 -17 20 3 20
15 0 22 -6 22 -20z m177 -88 c23 -15 -3 -33 -43 -30 -27 2 -40 8 -42 21 -3 14
4 17 35 17 21 0 43 -4 50 -8z m273 -166 c0 -11 -19 -15 -25 -6 -3 5 1 10 9 10
9 0 16 -2 16 -4z m148 -69 c3 -16 -2 -18 -35 -15 -27 2 -39 8 -41 21 -3 16 2
18 35 15 27 -2 39 -8 41 -21z m341 -216 c7 -13 27 -21 62 -26 30 -4 53 -13 56
-22 17 -44 -87 -36 -130 10 -15 17 -26 36 -23 44 8 19 24 16 35 -6z"/>
<path d="M4310 6476 c0 -20 19 -25 65 -17 l40 7 -47 12 c-58 15 -58 15 -58 -2z"/>
<path d="M4738 6243 c6 -2 18 -2 25 0 6 3 1 5 -13 5 -14 0 -19 -2 -12 -5z"/>
<path d="M2290 6196 c0 -2 7 -9 15 -16 12 -10 15 -10 15 4 0 9 -7 16 -15 16
-8 0 -15 -2 -15 -4z"/>
<path d="M4935 6140 c3 -5 8 -10 11 -10 2 0 4 5 4 10 0 6 -5 10 -11 10 -5 0
-7 -4 -4 -10z"/>
<path d="M5038 6083 c7 -3 16 -2 19 1 4 3 -2 6 -13 5 -11 0 -14 -3 -6 -6z"/>
<path d="M2390 6043 c-8 -2 -21 -6 -28 -9 -10 -3 -5 -13 15 -34 27 -29 54 -37
87 -24 13 5 12 9 -9 26 -14 11 -25 26 -25 34 0 14 -13 17 -40 7z"/>
<path d="M5145 6040 c-11 -18 10 -32 39 -24 27 7 36 24 12 24 -8 0 -21 3 -29
6 -8 3 -18 0 -22 -6z"/>
<path d="M8928 5863 c7 -3 16 -2 19 1 4 3 -2 6 -13 5 -11 0 -14 -3 -6 -6z"/>
<path d="M5805 5810 c3 -5 8 -10 11 -10 2 0 4 5 4 10 0 6 -5 10 -11 10 -5 0
-7 -4 -4 -10z"/>
<path d="M5590 5766 c0 -9 5 -16 10 -16 6 0 10 4 10 9 0 6 -4 13 -10 16 -5 3
-10 -1 -10 -9z"/>
<path d="M9080 5770 c-12 -8 -12 -10 3 -16 21 -8 35 2 21 16 -5 5 -15 6 -24 0z"/>
<path d="M8857 5763 c-10 -10 -8 -63 2 -63 11 0 21 25 21 51 0 19 -11 25 -23
12z"/>
<path d="M9168 5703 c6 -2 18 -2 25 0 6 3 1 5 -13 5 -14 0 -19 -2 -12 -5z"/>
<path d="M8965 5690 c-11 -5 -34 -9 -50 -9 -25 -1 -34 -8 -54 -44 l-23 -43 5
-541 c6 -520 7 -543 26 -581 11 -23 31 -44 43 -47 13 -4 32 -16 43 -26 11 -10
37 -25 56 -33 20 -8 39 -22 42 -30 3 -8 19 -17 36 -21 16 -3 40 -16 54 -28 13
-12 39 -31 57 -42 19 -11 56 -34 84 -52 28 -18 83 -50 121 -72 39 -22 76 -45
82 -51 7 -6 32 -19 56 -29 23 -10 48 -26 56 -35 7 -9 18 -16 23 -16 6 0 26
-13 45 -30 18 -16 40 -30 47 -30 7 0 26 -10 41 -22 28 -22 38 -28 126 -77 24
-13 49 -30 57 -37 7 -8 19 -14 26 -14 7 0 30 -13 51 -30 21 -16 44 -30 51 -30
7 0 25 -11 41 -24 15 -13 45 -31 66 -39 20 -9 37 -20 37 -26 0 -17 132 -82
180 -88 40 -5 51 -2 69 16 21 21 21 25 22 514 1 648 0 665 -16 704 -10 23 -26
39 -50 48 -19 9 -35 19 -35 24 0 6 -9 12 -19 16 -11 3 -36 19 -56 35 -21 17
-46 30 -56 30 -10 0 -24 9 -31 19 -8 11 -32 28 -53 38 -22 10 -46 25 -52 34
-7 9 -24 20 -37 23 -14 3 -36 17 -50 31 -14 14 -34 25 -45 25 -11 0 -25 8 -30
18 -5 10 -28 25 -51 32 -23 7 -46 22 -51 32 -5 10 -16 18 -24 18 -8 0 -25 10
-37 22 -23 23 -76 55 -140 84 -21 9 -38 20 -38 25 0 10 -98 71 -138 85 -18 7
-44 24 -57 38 -13 14 -32 26 -41 26 -10 0 -27 9 -38 19 -23 21 -76 54 -121 75
-16 8 -40 25 -52 39 -11 14 -35 28 -52 32 -17 4 -31 10 -31 15 0 8 -37 24 -75
34 -11 2 -29 1 -40 -4z"/>
</g>
</svg>
